<svg width="24" height="24" viewBox="0 0 24 24" fill="none" xmlns="http://www.w3.org/2000/svg">
<path d="M22.3439 22.3439L1.91522 22.3439" stroke="#08131C" stroke-width="1.5" stroke-linecap="round"/>
<path d="M21.0671 22.3439L21.0671 6.00094C21.0671 4.0749 21.0671 3.11188 20.4685 2.51354C19.8699 1.91519 18.9065 1.91519 16.9796 1.91519L14.9359 1.91519C13.009 1.91519 12.0456 1.91519 11.4469 2.51354C10.9651 2.99519 10.8711 3.71314 10.8528 4.9795" stroke="#08131C" stroke-width="1.5"/>
<path d="M15.3215 22.3439L15.3215 8.67469C15.3215 6.69201 15.3215 5.70066 14.6983 5.08472C14.075 4.46878 13.0718 4.46878 11.0656 4.46878L6.80957 4.46878C4.80328 4.46878 3.80014 4.46878 3.17686 5.08472C2.55359 5.70066 2.55359 6.69201 2.55359 8.67469L2.55359 22.3439" stroke="#08131C" stroke-width="1.5"/>
<path d="M8.93756 22.3439L8.93756 19.1519" stroke="#08131C" stroke-width="1.5" stroke-linecap="round"/>
<path d="M5.74561 7.66077L12.1296 7.66077" stroke="#08131C" stroke-width="1.5" stroke-linecap="round"/>
<path d="M5.74561 10.8528L12.1296 10.8528" stroke="#08131C" stroke-width="1.5" stroke-linecap="round"/>
<path d="M5.74561 14.0447L12.1296 14.0447" stroke="#08131C" stroke-width="1.5" stroke-linecap="round"/>
</svg>
