<svg width="24" height="24" viewBox="0 0 24 24" fill="none" xmlns="http://www.w3.org/2000/svg">
<circle cx="12" cy="12" r="9.25" stroke="#08131C" stroke-width="1.5"/>
<path d="M11.6164 13.4223L11.4795 8.3783L11.4521 7H12.5479L12.5205 8.3783L12.3836 13.4223H11.6164ZM12 17C11.726 17 11.4886 16.8974 11.2877 16.6921C11.0959 16.4868 11 16.2082 11 15.8563C11 15.5142 11.0959 15.2454 11.2877 15.0499C11.4886 14.8446 11.726 14.7419 12 14.7419C12.274 14.7419 12.5068 14.8446 12.6986 15.0499C12.8995 15.2454 13 15.5142 13 15.8563C13 16.2082 12.8995 16.4868 12.6986 16.6921C12.5068 16.8974 12.274 17 12 17Z" fill="#08131C"/>
</svg>
