<svg width="24" height="24" viewBox="0 0 24 24" fill="none" xmlns="http://www.w3.org/2000/svg">
<path d="M5.21967 12.7803C4.92678 12.4874 4.92678 12.0126 5.21967 11.7197L7.21967 9.71967C7.51257 9.42678 7.98744 9.42678 8.28033 9.71967C8.57323 10.0126 8.57323 10.4874 8.28033 10.7803L7.56066 11.5L14.75 11.5C15.1642 11.5 15.5 11.8358 15.5 12.25C15.5 12.6642 15.1642 13 14.75 13L7.56066 13L8.28033 13.7197C8.57323 14.0126 8.57323 14.4874 8.28033 14.7803C7.98744 15.0732 7.51257 15.0732 7.21967 14.7803L5.21967 12.7803Z" fill="#08131C"/>
<path fill-rule="evenodd" clip-rule="evenodd" d="M13.6953 1.5H14.8051C16.1727 1.49998 17.275 1.49996 18.142 1.61652C19.0421 1.73754 19.8 1.99643 20.4019 2.59835C21.0038 3.20027 21.2627 3.95814 21.3837 4.85825C21.5003 5.72522 21.5002 6.82754 21.5002 8.19513V16.3049C21.5002 17.6725 21.5003 18.7748 21.3837 19.6418C21.2627 20.5419 21.0038 21.2997 20.4019 21.9017C19.8 22.5036 19.0421 22.7625 18.142 22.8835C17.275 23 16.1727 23 14.8051 23H13.6953C12.3278 23 11.2254 23 10.3585 22.8835C9.45836 22.7625 8.70048 22.5036 8.09857 21.9017C7.69963 21.5027 7.45068 21.0344 7.29305 20.4998C6.34168 20.4986 5.54906 20.4881 4.90689 20.4018C4.14294 20.2991 3.4806 20.0768 2.95191 19.5481C2.42321 19.0194 2.20093 18.3571 2.09822 17.5931C1.99996 16.8623 1.99998 15.9365 2 14.8037V9.69631C1.99998 8.56349 1.99996 7.63774 2.09822 6.90689C2.20093 6.14294 2.42321 5.4806 2.95191 4.9519C3.4806 4.42321 4.14294 4.20093 4.90689 4.09822C5.54906 4.01188 6.34168 4.00142 7.29305 4.00017C7.45068 3.46562 7.69963 2.99729 8.09857 2.59835C8.70048 1.99643 9.45836 1.73754 10.3585 1.61652C11.2254 1.49996 12.3278 1.49998 13.6953 1.5ZM7.00197 17.2542C7.00555 17.8987 7.0162 18.4793 7.05285 18.9991C6.21836 18.9959 5.598 18.9812 5.10676 18.9152C4.50914 18.8348 4.21611 18.691 4.01257 18.4874C3.80903 18.2839 3.66519 17.9909 3.58484 17.3932C3.5016 16.7741 3.5 15.9497 3.5 14.75V9.75C3.5 8.55029 3.5016 7.72595 3.58484 7.10676C3.66519 6.50914 3.80903 6.2161 4.01257 6.01256C4.21611 5.80902 4.50914 5.66519 5.10676 5.58484C5.598 5.5188 6.21836 5.50415 7.05285 5.50091C7.0162 6.02073 7.00555 6.60129 7.00197 7.24583C6.99966 7.66003 7.33357 7.99768 7.74778 7.99999C8.16199 8.0023 8.49964 7.66838 8.50194 7.25418C8.50803 6.16068 8.53643 5.3856 8.64448 4.79735C8.7486 4.23054 8.91577 3.90246 9.15923 3.65901C9.43599 3.38225 9.82456 3.2018 10.5583 3.10315C11.3137 3.00159 12.3148 3 13.7502 3H14.7502C16.1856 3 17.1867 3.00159 17.9421 3.10315C18.6759 3.2018 19.0644 3.38225 19.3412 3.65901C19.618 3.93577 19.7984 4.32435 19.8971 5.05812C19.9986 5.81347 20.0002 6.81459 20.0002 8.25V16.25C20.0002 17.6854 19.9986 18.6865 19.8971 19.4419C19.7984 20.1757 19.618 20.5642 19.3412 20.841C19.0644 21.1178 18.6759 21.2982 17.9421 21.3969C17.1867 21.4984 16.1856 21.5 14.7502 21.5H13.7502C12.3148 21.5 11.3137 21.4984 10.5583 21.3969C9.82456 21.2982 9.43599 21.1178 9.15923 20.841C8.91577 20.5975 8.7486 20.2695 8.64448 19.7027C8.53643 19.1144 8.50803 18.3393 8.50194 17.2458C8.49964 16.8316 8.16199 16.4977 7.74778 16.5C7.33357 16.5023 6.99966 16.84 7.00197 17.2542Z" fill="#08131C"/>
</svg>
