<svg width="24" height="24" viewBox="0 0 24 24" fill="none" xmlns="http://www.w3.org/2000/svg">
<path d="M10 13.25C9.58579 13.25 9.25001 13.5858 9.25001 14C9.25001 14.4142 9.58579 14.75 10 14.75H14C14.4142 14.75 14.75 14.4142 14.75 14C14.75 13.5858 14.4142 13.25 14 13.25H10Z" fill="#F0F1F6"/>
<path fill-rule="evenodd" clip-rule="evenodd" d="M14.6646 2.32919C15.0351 2.14395 15.4856 2.29412 15.6708 2.6646L17.4841 6.2912C17.9117 6.31294 18.3015 6.34614 18.6548 6.39687C19.7106 6.54845 20.5843 6.87432 21.2053 7.64247C21.8263 8.41062 21.9619 9.33329 21.8889 10.3973C21.8181 11.4285 21.5395 12.7289 21.1911 14.3545L20.7397 16.4612C20.5047 17.5577 20.3142 18.4471 20.0743 19.1419C19.8244 19.866 19.495 20.4614 18.9323 20.9163C18.3697 21.3711 17.7184 21.5685 16.9581 21.6611C16.2284 21.75 15.3188 21.75 14.1975 21.75H9.80258C8.68126 21.75 7.77165 21.75 7.04202 21.6611C6.28165 21.5685 5.63039 21.3711 5.06775 20.9163C4.50511 20.4614 4.17567 19.866 3.92575 19.1419C3.68593 18.4471 3.49535 17.5577 3.26042 16.4612L2.80899 14.3546C2.46061 12.7289 2.18194 11.4285 2.11121 10.3973C2.03822 9.33329 2.17377 8.41062 2.79476 7.64247C3.41574 6.87432 4.28953 6.54845 5.34525 6.39687C5.69853 6.34615 6.08838 6.31294 6.51589 6.2912L8.32919 2.6646C8.51443 2.29412 8.96493 2.14395 9.33542 2.32919C9.7059 2.51443 9.85607 2.96494 9.67083 3.33542L8.2125 6.25207C8.57606 6.25 8.95871 6.25001 9.36082 6.25001H14.6393C15.0413 6.25001 15.424 6.25 15.7875 6.25207L14.3292 3.33542C14.1439 2.96494 14.2941 2.51443 14.6646 2.32919ZM5.73213 7.85873L5.32919 8.6646C5.14395 9.03509 5.29411 9.48559 5.6646 9.67083C6.03508 9.85607 6.48559 9.70591 6.67083 9.33542L7.45808 7.76092C8.02848 7.75035 8.67792 7.75001 9.42197 7.75001H14.5781C15.3221 7.75001 15.9716 7.75035 16.5419 7.76092L17.3292 9.33542C17.5144 9.70591 17.9649 9.85607 18.3354 9.67083C18.7059 9.48559 18.8561 9.03509 18.6708 8.6646L18.2679 7.85872C18.3271 7.86588 18.385 7.87351 18.4417 7.88164C19.3255 8.00855 19.7593 8.23967 20.0388 8.58549C20.3137 8.92548 20.4489 9.38794 20.3953 10.25H3.60477C3.55118 9.38794 3.6864 8.92548 3.96126 8.58549C4.24082 8.23967 4.67455 8.00855 5.55843 7.88164C5.61507 7.87351 5.67295 7.86588 5.73213 7.85873ZM4.28851 14.1C4.09151 13.1807 3.9267 12.409 3.807 11.75H20.1931C20.0734 12.409 19.9086 13.1807 19.7116 14.1L19.283 16.1C19.0356 17.2546 18.863 18.0541 18.6564 18.6525C18.4566 19.2314 18.2518 19.5376 17.9893 19.7498C17.7269 19.9619 17.3846 20.0981 16.7766 20.1721C16.1483 20.2487 15.3303 20.25 14.1495 20.25H9.85054C8.66978 20.25 7.85181 20.2487 7.22347 20.1721C6.61551 20.0981 6.2732 19.9619 6.01077 19.7498C5.74834 19.5376 5.54349 19.2314 5.34366 18.6525C5.13714 18.0541 4.96448 17.2546 4.71708 16.1L4.28851 14.1Z" fill="#F0F1F6"/>
</svg>
