<svg width="66" height="66" viewBox="0 0 66 66" fill="none" xmlns="http://www.w3.org/2000/svg">
<path fill-rule="evenodd" clip-rule="evenodd" d="M32.5234 6.11944e-07C25.5021 -3.72617e-05 19.9995 -6.68764e-05 15.7063 0.577147C11.3119 1.16796 7.8443 2.40087 5.12258 5.12258C2.40087 7.8443 1.16796 11.3119 0.577147 15.7063C-6.68764e-05 19.9995 -3.72617e-05 25.502 6.11944e-07 32.5233V32.8724C-3.72617e-05 39.8938 -6.68764e-05 45.3963 0.577147 49.6896C1.16796 54.084 2.40087 57.5515 5.12258 60.2733C7.8443 62.995 11.3119 64.2279 15.7063 64.8187C19.9995 65.3959 25.502 65.3959 32.5234 65.3958H32.8724C39.8938 65.3959 45.3963 65.3959 49.6896 64.8187C54.084 64.2279 57.5515 62.995 60.2733 60.2733C62.995 57.5515 64.2279 54.084 64.8187 49.6896C65.3959 45.3963 65.3959 39.8938 65.3958 32.8724V32.5234C65.3959 25.502 65.3959 19.9995 64.8187 15.7063C64.2279 11.3119 62.995 7.8443 60.2733 5.12258C57.5515 2.40087 54.084 1.16796 49.6896 0.577147C45.3963 -6.68764e-05 39.8938 -3.72617e-05 32.8725 6.11944e-07H32.5234ZM30.4167 4.56334C24.3524 4.56974 19.8398 4.62497 16.3142 5.09896C12.4257 5.62175 10.0815 6.61605 8.34876 8.34876C6.61605 10.0815 5.62175 12.4257 5.09896 16.3142C4.62497 19.8398 4.56974 24.3524 4.56334 30.4167H17.2273C16.1597 29.0832 15.3621 27.5104 14.9272 25.7706C13.29 19.2218 19.2218 13.29 25.7706 14.9272C27.5104 15.3621 29.0832 16.1597 30.4167 17.2273V4.56334ZM4.56334 34.9792C4.56974 41.0434 4.62497 45.5561 5.09896 49.0816C5.62175 52.9701 6.61605 55.3144 8.34876 57.0471C10.0815 58.7798 12.4257 59.7741 16.3142 60.2969C19.8398 60.7709 24.3524 60.8261 30.4167 60.8325V39.1573C28.0453 43.894 23.1472 47.1458 17.4896 47.1458C16.2297 47.1458 15.2083 46.1245 15.2083 44.8646C15.2083 43.6047 16.2297 42.5833 17.4896 42.5833C22.164 42.5833 26.0806 39.339 27.1105 34.9792H26.7213L26.6933 34.9792H4.56334ZM34.9792 60.8325C41.0434 60.8261 45.5561 60.7709 49.0816 60.2969C52.9701 59.7741 55.3144 58.7798 57.0471 57.0471C58.7798 55.3144 59.7741 52.9701 60.2969 49.0816C60.7709 45.5561 60.8261 41.0434 60.8325 34.9792H38.7026L38.6745 34.9792H38.2854C39.3152 39.339 43.2319 42.5833 47.9062 42.5833C49.1661 42.5833 50.1875 43.6047 50.1875 44.8646C50.1875 46.1245 49.1661 47.1458 47.9062 47.1458C42.2486 47.1458 37.3506 43.894 34.9792 39.1573V60.8325ZM60.8325 30.4167H48.1686C49.2361 29.0832 50.0338 27.5104 50.4687 25.7706C52.1059 19.2218 46.174 13.29 39.6253 14.9272C37.8855 15.3621 36.3126 16.1597 34.9792 17.2273V4.56334C41.0434 4.56974 45.5561 4.62497 49.0816 5.09896C52.9701 5.62175 55.3144 6.61605 57.0471 8.34876C58.7798 10.0815 59.7741 12.4257 60.2969 16.3142C60.7709 19.8398 60.8261 24.3524 60.8325 30.4167ZM34.9792 30.4167L34.9792 26.7032C34.9874 23.2258 37.3568 20.1972 40.7318 19.3534C43.9391 18.5516 46.8442 21.4568 46.0424 24.664C45.199 28.0378 42.1723 30.4066 38.6967 30.4167H34.9792ZM30.4167 26.6982C30.4062 23.2229 28.0374 20.1968 24.664 19.3534C21.4568 18.5516 18.5516 21.4568 19.3534 24.664C20.1969 28.0378 23.2235 30.4066 26.6992 30.4167H30.4167V26.6982Z" fill="#6C9AD3"/>
</svg>
