<svg width="68" height="32" viewBox="0 0 68 32" fill="none" xmlns="http://www.w3.org/2000/svg">
<g clip-path="url(#clip0_200_844)">
<path d="M32.1301 16.5459V24.3569H29.5801V5.03931H36.2101C37.8251 5.03931 39.3551 5.62723 40.5451 6.7191C41.7351 7.72697 42.3301 9.23878 42.3301 10.8346C42.3301 12.4304 41.7351 13.8582 40.5451 14.9501C39.3551 16.0419 37.9101 16.6299 36.2101 16.6299L32.1301 16.5459ZM32.1301 7.39101V14.1102H36.3801C37.3151 14.1102 38.2501 13.7742 38.8451 13.1023C40.2051 11.8425 40.2051 9.74272 38.9301 8.48288L38.8451 8.39889C38.1651 7.72697 37.3151 7.30702 36.3801 7.39101H32.1301Z" fill="#BABABA"/>
<path d="M48.1951 10.7507C50.0651 10.7507 51.5101 11.2547 52.6151 12.2625C53.7201 13.2704 54.2301 14.6142 54.2301 16.294V24.357H51.8501V22.5093H51.7651C50.7451 24.0211 49.3001 24.777 47.6001 24.777C46.1551 24.777 44.8801 24.357 43.8601 23.5171C42.9251 22.6772 42.3301 21.5014 42.3301 20.2415C42.3301 18.8977 42.8401 17.8059 43.8601 16.966C44.8801 16.1261 46.3251 15.7901 48.0251 15.7901C49.5551 15.7901 50.7451 16.0421 51.6801 16.63V16.0421C51.6801 15.2022 51.3401 14.3623 50.6601 13.8583C49.9801 13.2704 49.1301 12.9345 48.1951 12.9345C46.7501 12.9345 45.6451 13.5224 44.8801 14.6982L42.6701 13.3544C44.0301 11.5906 45.8151 10.7507 48.1951 10.7507ZM44.9651 20.3255C44.9651 20.9975 45.3051 21.5854 45.8151 21.9213C46.4101 22.3413 47.0901 22.5933 47.7701 22.5933C48.7901 22.5933 49.8101 22.1733 50.5751 21.4174C51.4251 20.6615 51.8501 19.7376 51.8501 18.7297C51.0851 18.1418 49.9801 17.8059 48.5351 17.8059C47.5151 17.8059 46.6651 18.0578 45.9851 18.5618C45.3051 18.9817 44.9651 19.5696 44.9651 20.3255Z" fill="#BABABA"/>
<path d="M68.0003 11.1707L59.5853 30.2363H57.0353L60.1803 23.6011L54.6553 11.2546H57.3753L61.3703 20.7455H61.4553L65.3653 11.2546H68.0003V11.1707Z" fill="#BABABA"/>
<path d="M22.0147 14.8661C22.0147 14.1102 21.9297 13.3543 21.8447 12.5984H11.2197V16.8819H17.2547C16.9997 18.2257 16.2347 19.4855 15.0447 20.2414V23.0131H18.6997C20.8247 21.0813 22.0147 18.2257 22.0147 14.8661Z" fill="#BABABA"/>
<path d="M11.2204 25.7007C14.2804 25.7007 16.8304 24.6929 18.7004 23.0131L15.0454 20.2414C14.0254 20.9133 12.7504 21.3333 11.2204 21.3333C8.33043 21.3333 5.78043 19.4015 4.93043 16.7139H1.19043V19.5695C3.14543 23.349 6.97043 25.7007 11.2204 25.7007Z" fill="#BABABA"/>
<path d="M4.92977 16.7138C4.41977 15.37 4.41977 13.8582 4.92977 12.4304V9.57471H1.18977C-0.425234 12.6823 -0.425234 16.3779 1.18977 19.5695L4.92977 16.7138Z" fill="#BABABA"/>
<path d="M11.2204 7.89492C12.8354 7.89492 14.3654 8.48285 15.5554 9.57471L18.7854 6.38311C16.7454 4.53534 14.0254 3.44348 11.3054 3.52747C7.05539 3.52747 3.14539 5.87917 1.27539 9.6587L5.01539 12.5143C5.78039 9.82668 8.33039 7.89492 11.2204 7.89492Z" fill="#BABABA"/>
</g>
<defs>
<clipPath id="clip0_200_844">
<rect width="68" height="32" fill="white"/>
</clipPath>
</defs>
</svg>
