<svg width="24" height="24" viewBox="0 0 24 24" fill="none" xmlns="http://www.w3.org/2000/svg">
<path d="M9.80144 18.0216L10.2658 17.4326L9.80144 18.0216ZM12.3333 6.84643L11.793 7.36653C11.9344 7.51343 12.1294 7.59643 12.3333 7.59643C12.5372 7.59643 12.7323 7.51343 12.8737 7.36653L12.3333 6.84643ZM14.8652 18.0216L15.3295 18.6106L14.8652 18.0216ZM8.24661 15.8501C7.92678 15.5869 7.45413 15.6328 7.19091 15.9526C6.92769 16.2725 6.97358 16.7451 7.29341 17.0083L8.24661 15.8501ZM4.17532 13.4988C4.37408 13.8622 4.82981 13.9957 5.19322 13.7969C5.55663 13.5982 5.69011 13.1424 5.49135 12.779L4.17532 13.4988ZM4.75 9.87682C4.75 8.1312 5.73619 6.67381 7.07226 6.06309C8.36105 5.47398 10.11 5.61797 11.793 7.36653L12.8737 6.32633C10.8068 4.17892 8.38908 3.81189 6.44867 4.69885C4.55554 5.56421 3.25 7.57 3.25 9.87682H4.75ZM9.33713 18.6106C9.76284 18.9462 10.2278 19.3106 10.701 19.5871C11.1739 19.8634 11.7263 20.0959 12.3333 20.0959V18.5959C12.1071 18.5959 11.8261 18.5073 11.4577 18.292C11.0896 18.0769 10.7053 17.7791 10.2658 17.4326L9.33713 18.6106ZM15.3295 18.6106C16.511 17.6793 18.0445 16.5953 19.2462 15.2421C20.4736 13.8599 21.4167 12.1371 21.4167 9.87682H19.9167C19.9167 11.669 19.1849 13.0521 18.1246 14.246C17.0386 15.4689 15.6714 16.4311 14.4009 17.4326L15.3295 18.6106ZM21.4167 9.87682C21.4167 7.57 20.1111 5.56421 18.218 4.69885C16.2776 3.81189 13.8598 4.17892 11.793 6.32633L12.8737 7.36653C14.5567 5.61797 16.3056 5.47398 17.5944 6.06309C18.9305 6.67381 19.9167 8.1312 19.9167 9.87682H21.4167ZM14.4009 17.4326C13.9614 17.7791 13.5771 18.0769 13.2089 18.292C12.8405 18.5073 12.5596 18.5959 12.3333 18.5959V20.0959C12.9404 20.0959 13.4928 19.8634 13.9657 19.5871C14.4389 19.3106 14.9038 18.9462 15.3295 18.6106L14.4009 17.4326ZM10.2658 17.4326C9.59807 16.9063 8.92971 16.4123 8.24661 15.8501L7.29341 17.0083C7.9861 17.5784 8.72265 18.1262 9.33713 18.6106L10.2658 17.4326ZM5.49135 12.779C5.03291 11.9408 4.75 10.9927 4.75 9.87682H3.25C3.25 11.2641 3.60605 12.4579 4.17532 13.4988L5.49135 12.779Z" fill="#F0F1F6"/>
</svg>
