<svg width="28" height="28" viewBox="0 0 28 28" fill="none" xmlns="http://www.w3.org/2000/svg">
<path d="M19.5856 3.33304C18.4482 3.33305 17.3313 3.64595 16.3496 4.2396C15.3679 4.83325 14.5568 5.68626 13.9996 6.71103C13.4422 5.6861 12.6309 4.83298 11.649 4.23932C10.6671 3.64566 9.55004 3.33286 8.41248 3.33304C6.67046 3.43065 5.03188 4.21847 3.83744 5.53269C2.64301 6.8469 1.98465 8.58638 1.99926 10.3894C1.99926 19.5848 13.9996 25.9997 13.9996 25.9997C13.9996 25.9997 25.9988 19.5848 25.9988 10.3894C26.0134 8.58638 25.355 6.8469 24.1606 5.53269C22.9662 4.21847 21.3276 3.43065 19.5856 3.33304Z" fill="#F0F1F6"/>
</svg>
