<svg width="68" height="20" viewBox="0 0 68 20" fill="none" xmlns="http://www.w3.org/2000/svg">
<g clip-path="url(#clip0_200_859)">
<path d="M21.7446 4.58496C21.6047 4.58496 21.4858 4.68668 21.4639 4.82519L19.844 15.1108C19.8381 15.1484 19.8404 15.1868 19.8508 15.2234C19.8611 15.26 19.8793 15.2939 19.904 15.3228C19.9287 15.3517 19.9593 15.3749 19.9938 15.3908C20.0283 15.4067 20.0658 15.415 20.1038 15.415H22.0249C22.1647 15.415 22.2838 15.3131 22.3057 15.1747L22.7815 12.1543C22.8032 12.016 22.9223 11.9141 23.0622 11.9141H24.8089C26.8497 11.9141 28.5821 10.4232 28.8985 8.4031C29.2176 6.36587 27.6279 4.58938 25.3749 4.58496H21.7446ZM23.6122 6.88111H25.0096C26.1602 6.88111 26.5348 7.56079 26.4164 8.31243C26.2979 9.06569 25.716 9.62053 24.6031 9.62053H23.1807L23.6122 6.88111ZM32.8058 7.58029C32.3207 7.5821 31.7625 7.68161 31.1359 7.94294C29.6984 8.54281 29.0081 9.78256 28.715 10.6864C28.715 10.6864 27.7819 13.4439 29.89 14.9588C29.89 14.9588 31.8451 16.4173 34.0459 14.869L34.0079 15.1108C34.002 15.1484 34.0044 15.1867 34.0147 15.2233C34.025 15.2599 34.0431 15.2937 34.0678 15.3226C34.0924 15.3515 34.123 15.3748 34.1575 15.3907C34.1919 15.4066 34.2294 15.4149 34.2673 15.415H36.0911C36.231 15.415 36.3499 15.3131 36.3718 15.1747L37.4811 8.13111C37.4871 8.09354 37.4848 8.05513 37.4745 8.01851C37.4642 7.9819 37.4461 7.94795 37.4215 7.91901C37.3968 7.89007 37.3662 7.86682 37.3317 7.85086C37.2973 7.83489 37.2597 7.8266 37.2217 7.82655H35.398C35.258 7.82655 35.139 7.92847 35.1173 8.06678L35.0576 8.44592C35.0576 8.44592 34.2613 7.57486 32.8058 7.58029ZM32.8654 9.80507C33.0749 9.80507 33.2664 9.83402 33.4383 9.8893C34.2252 10.1422 34.6713 10.8991 34.5422 11.7195C34.383 12.7296 33.5556 13.4734 32.4944 13.4734C32.2852 13.4734 32.0936 13.4447 31.9215 13.3894C31.1349 13.1365 30.6859 12.3796 30.815 11.5592C30.9742 10.5491 31.8043 9.80507 32.8654 9.80507Z" fill="#BABABA"/>
<path d="M48.0073 4.58496C47.8674 4.58496 47.7485 4.68668 47.7266 4.82519L46.1067 15.1108C46.1008 15.1484 46.1031 15.1868 46.1135 15.2234C46.1238 15.26 46.142 15.2939 46.1667 15.3228C46.1913 15.3517 46.222 15.3749 46.2565 15.3908C46.291 15.4067 46.3285 15.415 46.3665 15.415H48.2876C48.4274 15.415 48.5465 15.3131 48.5683 15.1747L49.0442 12.1543C49.0659 12.016 49.185 11.9141 49.3249 11.9141H51.0716C53.1124 11.9141 54.8446 10.4232 55.1608 8.4031C55.48 6.36587 53.8906 4.58938 51.6376 4.58496H48.0073ZM49.8749 6.88111H51.2723C52.4229 6.88111 52.7975 7.56079 52.6791 8.31243C52.5606 9.06569 51.9789 9.62053 50.8658 9.62053H49.4434L49.8749 6.88111ZM59.0683 7.58029C58.5832 7.5821 58.025 7.68161 57.3984 7.94294C55.9609 8.54281 55.2706 9.78256 54.9775 10.6864C54.9775 10.6864 54.0448 13.4439 56.1529 14.9588C56.1529 14.9588 58.1075 16.4173 60.3086 14.869L60.2706 15.1108C60.2647 15.1484 60.267 15.1868 60.2774 15.2234C60.2877 15.26 60.3059 15.2939 60.3306 15.3228C60.3553 15.3517 60.3859 15.3749 60.4204 15.3908C60.4549 15.4067 60.4925 15.415 60.5304 15.415H62.354C62.4939 15.415 62.6128 15.3131 62.6347 15.1747L63.7444 8.13111C63.7504 8.0935 63.7481 8.05506 63.7378 8.01842C63.7275 7.98177 63.7094 7.94781 63.6847 7.91886C63.66 7.88991 63.6293 7.86667 63.5948 7.85073C63.5602 7.83479 63.5227 7.82654 63.4846 7.82655H61.6609C61.5209 7.82655 61.4019 7.92847 61.3802 8.06678L61.3205 8.44592C61.3205 8.44592 60.5238 7.57486 59.0683 7.58029ZM59.1279 9.80507C59.3374 9.80507 59.5289 9.83402 59.7008 9.8893C60.4877 10.1422 60.9338 10.8991 60.8047 11.7195C60.6455 12.7296 59.818 13.4734 58.7569 13.4734C58.5477 13.4734 58.3561 13.4447 58.184 13.3894C57.3974 13.1365 56.9484 12.3796 57.0775 11.5592C57.2367 10.5491 58.0668 9.80507 59.1279 9.80507Z" fill="#BABABA"/>
<path d="M38.3464 7.82637C38.2018 7.82637 38.099 7.9677 38.1432 8.1054L40.1426 14.3174L38.3347 17.2448C38.247 17.3869 38.349 17.5704 38.5158 17.5704H40.6526C40.7137 17.5704 40.7738 17.5546 40.827 17.5245C40.8802 17.4944 40.9248 17.4511 40.9564 17.3988L46.5405 8.15003C46.6262 8.0079 46.5238 7.82617 46.358 7.82617H44.2214C44.1597 7.82622 44.0991 7.84236 44.0455 7.87299C43.9919 7.90362 43.9472 7.94769 43.9158 8.00087L41.7178 11.7163L40.602 8.02841C40.5657 7.90839 40.455 7.82617 40.3299 7.82617L38.3464 7.82637Z" fill="#BABABA"/>
<path d="M65.8164 4.58496C65.6767 4.58496 65.5576 4.68688 65.5357 4.82519L63.9153 15.1104C63.9094 15.148 63.9117 15.1865 63.922 15.2231C63.9323 15.2598 63.9504 15.2937 63.9751 15.3227C63.9998 15.3516 64.0305 15.3749 64.065 15.3908C64.0996 15.4067 64.1371 15.415 64.1752 15.415H66.0963C66.236 15.415 66.3551 15.3131 66.377 15.1747L67.997 4.88912C68.0028 4.85158 68.0005 4.81321 67.9902 4.77665C67.9799 4.74008 67.9618 4.70619 67.9371 4.67729C67.9125 4.6484 67.8819 4.62518 67.8474 4.60925C67.813 4.59331 67.7755 4.58502 67.7375 4.58496H65.8164Z" fill="#BABABA"/>
<path d="M5.72826 4.58496C5.6045 4.58506 5.48484 4.62935 5.39078 4.70986C5.29671 4.79037 5.23439 4.90183 5.21504 5.02421L4.3623 10.4391C4.40206 10.1862 4.61971 9.99987 4.87551 9.99987H7.37431C9.88917 9.99987 12.0231 8.16307 12.4131 5.67393C12.4421 5.4881 12.4585 5.30051 12.4623 5.11246C11.8232 4.77694 11.0724 4.58496 10.2498 4.58496H5.72826Z" fill="#BABABA"/>
<path d="M12.4624 5.11255C12.4587 5.3006 12.4422 5.48819 12.4132 5.67402C12.0233 8.16316 9.88914 9.99996 7.37448 9.99996H4.87568C4.62008 9.99996 4.40223 10.1861 4.36247 10.4392L3.57839 15.4151L3.08727 18.5366C3.07769 18.597 3.08128 18.6586 3.09781 18.7174C3.11434 18.7762 3.14342 18.8307 3.18303 18.8771C3.22264 18.9236 3.27184 18.9608 3.32724 18.9864C3.38264 19.012 3.44291 19.0252 3.50391 19.0251H6.21614C6.3399 19.025 6.45955 18.9808 6.55362 18.9002C6.64769 18.8197 6.71 18.7083 6.72935 18.5859L7.44374 14.0493C7.46311 13.9268 7.52548 13.8153 7.61963 13.7348C7.71378 13.6543 7.83354 13.61 7.95737 13.61H9.55423C12.0691 13.61 14.203 11.7732 14.593 9.28409C14.8699 7.51745 13.9812 5.90983 12.4624 5.11255Z" fill="#BABABA"/>
<path d="M2.6468 0.975586C2.39119 0.975586 2.17335 1.16174 2.13359 1.41443L0.00523818 14.9268C-0.03512 15.1833 0.162861 15.4153 0.422278 15.4153H3.57845L4.36213 10.4394L5.21486 5.0245C5.23421 4.90212 5.29653 4.79067 5.3906 4.71016C5.48467 4.62964 5.60432 4.58536 5.72808 4.58526H10.2496C11.0724 4.58526 11.823 4.77744 12.4621 5.11276C12.5059 2.84656 10.6381 0.975586 8.07026 0.975586H2.6468Z" fill="#BABABA"/>
</g>
<defs>
<clipPath id="clip0_200_859">
<rect width="68" height="18.0494" fill="white" transform="translate(0 0.975342)"/>
</clipPath>
</defs>
</svg>
