<svg width="68" height="26" viewBox="0 0 68 26" fill="none" xmlns="http://www.w3.org/2000/svg">
<g clip-path="url(#clip0_200_868)">
<mask id="mask0_200_868" style="mask-type:luminance" maskUnits="userSpaceOnUse" x="-6" y="-7" width="80" height="40">
<path d="M-5.69141 -6.96428H73.6958V32.9636H-5.69141V-6.96428Z" fill="white"/>
</mask>
<g mask="url(#mask0_200_868)">
<path d="M0.552841 21.6752H1.06187L0.588859 23.6626C0.51866 23.9574 0.531891 24.1794 0.62892 24.3275C0.725581 24.4757 0.905489 24.5499 1.16846 24.5499C1.42977 24.5499 1.64405 24.4757 1.81146 24.3275C1.97905 24.1794 2.09795 23.9574 2.16815 23.6626L2.64098 21.6752H3.15663L2.67204 23.7117C2.56674 24.1543 2.37911 24.4855 2.11045 24.7051C1.8416 24.9251 1.48913 25.0349 1.05305 25.0349C0.616608 25.0349 0.317252 24.9253 0.154251 24.7062C-0.00893378 24.4874 -0.0374176 24.1558 0.0682481 23.7117L0.552841 21.6752Z" fill="#BABABA"/>
<path d="M3.08789 24.948L3.89757 21.5458L5.43606 23.5464C5.47722 23.6028 5.51875 23.6632 5.55973 23.7274C5.60071 23.7915 5.64261 23.8636 5.68561 23.9442L6.2257 21.6753H6.70221L5.89309 25.075L4.32225 23.0386C4.28017 22.9837 4.24103 22.9257 4.20446 22.8645C4.16752 22.8033 4.13426 22.7392 4.10375 22.6723L3.56219 24.948H3.08789Z" fill="#BABABA"/>
<path d="M6.66016 24.9478L7.43896 21.6751H7.95424L7.17562 24.9478H6.66016Z" fill="#BABABA"/>
<path d="M7.91699 24.9478L8.69579 21.6751H10.4655L10.358 22.1266H9.10376L8.90952 22.9425H10.1637L10.0527 23.4096H8.79834L8.43246 24.9478H7.91699Z" fill="#BABABA"/>
<path d="M10.2539 24.9478L11.0327 21.6751H11.548L10.7694 24.9478H10.2539Z" fill="#BABABA"/>
<path d="M11.5107 24.9478L12.2895 21.6751H14.0592L13.9517 22.1266H12.6975L12.5022 22.9469H13.7564L13.6454 23.4142H12.3912L12.1394 24.4716H13.3936L13.2804 24.9478H11.5107Z" fill="#BABABA"/>
<path d="M14.5018 24.4672H14.9352C15.1733 24.4672 15.356 24.4507 15.483 24.418C15.61 24.3853 15.7265 24.33 15.8332 24.2526C15.9782 24.147 16.0993 24.0154 16.1967 23.8581C16.2939 23.701 16.3676 23.5178 16.4172 23.3091C16.4667 23.1004 16.4803 22.9178 16.4578 22.7608C16.4352 22.6033 16.3768 22.4719 16.2822 22.366C16.2111 22.2887 16.1171 22.2333 15.9999 22.2004C15.8825 22.1678 15.6914 22.1514 15.4256 22.1514H15.2393H15.053L14.5018 24.4672ZM13.8721 24.948L14.6509 21.6752H15.3461C15.7981 21.6752 16.1105 21.6985 16.2836 21.7454C16.4564 21.7926 16.5992 21.8713 16.7114 21.9815C16.8605 22.1261 16.9553 22.3116 16.9961 22.5379C17.0367 22.7645 17.0224 23.0231 16.9533 23.3137C16.8842 23.6043 16.7756 23.8618 16.6275 24.086C16.4797 24.3104 16.2965 24.4955 16.0786 24.6415C15.9137 24.7519 15.7369 24.8304 15.5491 24.8776C15.3608 24.9243 15.08 24.948 14.7058 24.948H14.5671H13.8721Z" fill="#BABABA"/>
<path d="M19.4628 23.0435H19.5951C19.8808 23.0435 20.0791 23.0111 20.1898 22.9472C20.3006 22.8832 20.375 22.7699 20.4136 22.6074C20.4551 22.4331 20.4336 22.31 20.3487 22.2386C20.2638 22.1671 20.0852 22.131 19.8123 22.131H19.68L19.4628 23.0435ZM19.3266 23.479L18.9771 24.948H18.4941L19.2731 21.6754H20.0528C20.2838 21.6754 20.4509 21.6883 20.5538 21.7144C20.6563 21.7403 20.7411 21.7833 20.8079 21.843C20.8894 21.919 20.9428 22.0214 20.9686 22.1503C20.9941 22.2793 20.9886 22.4213 20.9518 22.576C20.9147 22.7311 20.8526 22.8742 20.7651 23.0054C20.6777 23.1365 20.5751 23.2394 20.4579 23.3137C20.3627 23.3734 20.2577 23.4159 20.1427 23.4411C20.0275 23.4666 19.8546 23.479 19.6236 23.479H19.5219H19.3266Z" fill="#BABABA"/>
<path d="M21.5888 23.6625H22.4725L22.325 22.9157C22.318 22.8682 22.3114 22.8135 22.3057 22.7515C22.3003 22.6896 22.2967 22.6207 22.2943 22.5447C22.2601 22.6162 22.2257 22.683 22.1914 22.7449C22.1572 22.8066 22.1239 22.8636 22.0912 22.9157L21.5888 23.6625ZM22.7083 24.9478L22.549 24.105H21.2926L20.7238 24.9478H20.1826L22.5277 21.5456L23.2519 24.9478H22.7083Z" fill="#BABABA"/>
<path d="M23.9904 24.9478L24.3466 23.4499L23.7012 21.6751H24.2427L24.6433 22.7861C24.6525 22.8146 24.6636 22.8517 24.6762 22.8979C24.6891 22.9441 24.7016 22.9939 24.7134 23.0477C24.7457 22.9955 24.779 22.946 24.8122 22.9C24.8455 22.8538 24.8791 22.8114 24.9131 22.7726L25.8564 21.6751H26.372L24.8578 23.4499L24.5015 24.9478H23.9904Z" fill="#BABABA"/>
<path d="M28.9092 23.3315C28.9094 23.3062 28.9167 23.2363 28.9311 23.1215C28.9421 23.0261 28.9507 22.947 28.957 22.8844C28.9263 22.959 28.8901 23.0337 28.8485 23.108C28.8068 23.1825 28.759 23.2585 28.7045 23.3361L27.4598 25.0798L27.0537 23.3005C27.0364 23.2273 27.0232 23.1565 27.0144 23.0881C27.0055 23.0195 26.9995 22.9516 26.9965 22.8844C26.9789 22.9531 26.9565 23.0248 26.9291 23.1003C26.9017 23.1755 26.869 23.2542 26.8306 23.3361L26.1069 24.9479H25.6328L27.1939 21.5364L27.6383 23.6021C27.6447 23.6349 27.6541 23.6894 27.6655 23.7654C27.6768 23.8413 27.6903 23.9352 27.7059 24.0469C27.7584 23.953 27.8342 23.8339 27.9338 23.6894C27.9602 23.6506 27.9804 23.6208 27.994 23.5999L29.3993 21.5364L29.3543 24.9479H28.8754L28.9092 23.3315Z" fill="#BABABA"/>
<path d="M29.7656 24.9478L30.5446 21.6751H32.3143L32.2068 22.1266H30.9524L30.7572 22.9469H32.0114L31.9004 23.4142H30.6461L30.3945 24.4716H31.6487L31.5351 24.9478H29.7656Z" fill="#BABABA"/>
<path d="M32.127 24.948L32.9366 21.5458L34.4751 23.5464C34.5163 23.6028 34.5578 23.6632 34.5988 23.7274C34.6398 23.7915 34.6817 23.8636 34.7247 23.9442L35.2648 21.6753H35.7415L34.9321 25.075L33.3613 23.0386C33.3192 22.9837 33.2801 22.9257 33.2435 22.8645C33.2066 22.8033 33.1733 22.7392 33.1428 22.6723L32.6013 24.948H32.127Z" fill="#BABABA"/>
<path d="M37.3856 22.1268L36.7143 24.948H36.1988L36.8699 22.1268H36.0273L36.1348 21.6754H38.3312L38.2239 22.1268H37.3856Z" fill="#BABABA"/>
<path d="M37.921 24.2927L38.3793 24.0962C38.3839 24.2421 38.4288 24.3535 38.5144 24.4303C38.6 24.5072 38.7237 24.5454 38.8858 24.5454C39.0387 24.5454 39.171 24.5014 39.282 24.4134C39.3932 24.3256 39.4665 24.2079 39.5016 24.0604C39.5473 23.8679 39.4332 23.6966 39.1603 23.5463C39.1221 23.5239 39.0927 23.5075 39.0725 23.4969C38.7647 23.3212 38.5695 23.162 38.4872 23.0197C38.4051 22.8773 38.3881 22.7034 38.437 22.4978C38.5004 22.2311 38.6397 22.015 38.8545 21.8496C39.0694 21.6841 39.3189 21.6013 39.6036 21.6013C39.8375 21.6013 40.0222 21.6479 40.1573 21.741C40.2925 21.8344 40.3697 21.968 40.3888 22.1424L39.9351 22.357C39.8958 22.2542 39.8439 22.179 39.7796 22.1311C39.7151 22.0834 39.6335 22.0595 39.5356 22.0595C39.397 22.0595 39.2779 22.0971 39.1785 22.1712C39.0797 22.2459 39.0148 22.3457 38.9848 22.471C38.9382 22.6677 39.0736 22.8509 39.3913 23.0208C39.4158 23.0341 39.4349 23.0448 39.4487 23.0522C39.7267 23.201 39.9075 23.3468 39.9904 23.4892C40.0735 23.6317 40.0898 23.8093 40.0389 24.0223C39.9652 24.3325 39.8122 24.5787 39.5795 24.7611C39.3469 24.9436 39.0694 25.0349 38.7476 25.0349C38.4773 25.0349 38.2713 24.971 38.1294 24.8427C37.9872 24.7146 37.9177 24.5314 37.921 24.2927Z" fill="#BABABA"/>
<path d="M41.7295 24.9478L42.5083 21.6751H43.0238L42.245 24.9478H41.7295Z" fill="#BABABA"/>
<path d="M42.9854 24.948L43.795 21.5458L45.3335 23.5464C45.3747 23.6028 45.4162 23.6632 45.4572 23.7274C45.4982 23.7915 45.5401 23.8636 45.5831 23.9442L46.1232 21.6753H46.5997L45.7905 25.075L44.2197 23.0386C44.1776 22.9837 44.1383 22.9257 44.1017 22.8645C44.065 22.8033 44.0315 22.7392 44.001 22.6723L43.4597 24.948H42.9854Z" fill="#BABABA"/>
<path d="M48.2449 22.1268L47.5735 24.948H47.0582L47.7293 22.1268H46.8867L46.9942 21.6754H49.1906L49.0833 22.1268H48.2449Z" fill="#BABABA"/>
<path d="M48.8057 24.9478L49.5845 21.6751H51.3541L51.2468 22.1266H49.9926L49.7973 22.9469H51.0515L50.9403 23.4142H49.6861L49.4345 24.4716H50.6887L50.5753 24.9478H48.8057Z" fill="#BABABA"/>
<path d="M52.1294 23.0698H52.2227C52.4954 23.0698 52.6845 23.0373 52.7897 22.9717C52.8948 22.9061 52.9675 22.79 53.0069 22.6229C53.0499 22.4426 53.0322 22.3155 52.9534 22.2419C52.8753 22.1678 52.706 22.131 52.4462 22.131H52.3528L52.1294 23.0698ZM51.9985 23.4834L51.6499 24.9478H51.167L51.946 21.6751H52.6651C52.8758 21.6751 53.0361 21.6892 53.1454 21.7177C53.2549 21.7459 53.3432 21.7927 53.4099 21.8585C53.4893 21.9373 53.5407 22.0397 53.5646 22.1648C53.5879 22.2898 53.5819 22.4269 53.5466 22.5757C53.4843 22.838 53.374 23.0434 53.216 23.1919C53.058 23.3399 52.8554 23.4292 52.6086 23.4588L53.3463 24.9478H52.7634L52.057 23.4834H51.9985Z" fill="#BABABA"/>
<path d="M53.6523 24.9478L54.4311 21.6751H56.2008L56.0935 22.1266H54.8391L54.6449 22.9425H55.8993L55.7881 23.4096H54.5339L54.1678 24.9478H53.6523Z" fill="#BABABA"/>
<path d="M56.7978 23.6625H57.6817L57.5341 22.9157C57.527 22.8682 57.5205 22.8135 57.5148 22.7515C57.5095 22.6896 57.5058 22.6207 57.5034 22.5447C57.4691 22.6162 57.4347 22.683 57.4005 22.7449C57.3664 22.8066 57.3329 22.8636 57.3002 22.9157L56.7978 23.6625ZM57.9175 24.9478L57.7581 24.105H56.5017L55.933 24.9478H55.3916L57.7366 21.5456L58.4611 24.9478H57.9175Z" fill="#BABABA"/>
<path d="M61.8169 22.471C61.7016 22.3429 61.5704 22.2468 61.4231 22.1827C61.276 22.1189 61.1129 22.0865 60.9337 22.0865C60.5873 22.0865 60.2778 22.2013 60.006 22.4307C59.7339 22.6603 59.5545 22.9576 59.4676 23.3228C59.3836 23.6761 59.4202 23.9672 59.5771 24.1966C59.7341 24.4262 59.9737 24.5412 60.2955 24.5412C60.4835 24.5412 60.6702 24.5068 60.8561 24.4382C61.0421 24.3696 61.2297 24.2661 61.4185 24.1273L61.2753 24.7288C61.1123 24.8316 60.9431 24.9085 60.7679 24.9589C60.5926 25.0096 60.4098 25.0349 60.2192 25.0349C59.9766 25.0349 59.762 24.9941 59.5758 24.912C59.3895 24.8301 59.2372 24.7096 59.1194 24.5499C59.0021 24.3935 58.927 24.2092 58.8948 23.9966C58.8621 23.7844 58.8744 23.5581 58.9314 23.318C58.9885 23.0783 59.0839 22.8529 59.2171 22.642C59.3502 22.4311 59.5146 22.2459 59.7098 22.0865C59.9057 21.9255 60.1152 21.8039 60.3383 21.7209C60.5616 21.6385 60.7918 21.5969 61.0287 21.5969C61.215 21.5969 61.3859 21.625 61.5416 21.681C61.6972 21.7366 61.8409 21.8211 61.9731 21.9348L61.8169 22.471Z" fill="#BABABA"/>
<path d="M61.8662 24.9478L62.645 21.6751H64.4147L64.3072 22.1266H63.0532L62.8578 22.9469H64.112L64.0008 23.4142H62.7466L62.4951 24.4716H63.7493L63.6359 24.9478H61.8662Z" fill="#BABABA"/>
<path d="M52.4645 18.8235H48.9209L53.8492 0.919704H57.3929L52.4645 18.8235Z" fill="#BABABA"/>
<path d="M50.6247 1.48561C50.379 1.14493 50 0.973021 49.4853 0.973021H29.9994L29.0343 4.47965H32.5799V4.47762H46.761L45.7293 8.22493H31.5479L31.5491 8.21716H28.005L25.0635 18.8992H28.6094L30.5835 11.7295H46.5245C47.0223 11.7295 47.4909 11.5587 47.9316 11.2171C48.3713 10.8751 48.6608 10.4535 48.7995 9.94996L50.7733 2.77884C50.9174 2.25848 50.8676 1.82666 50.6247 1.48561Z" fill="#BABABA"/>
<path d="M22.9991 17.7057C22.8034 18.4146 22.1617 18.905 21.4301 18.905H3.14697C2.64878 18.905 2.27849 18.7342 2.035 18.393C1.79169 18.0514 1.7395 17.6288 1.87861 17.1255L6.33973 0.971857H9.88661L5.902 15.3995H20.0899L24.0745 0.971857H27.6206L22.9991 17.7057Z" fill="#BABABA"/>
<path d="M63.5132 0.953104L67.9996 9.92819L58.5684 18.9009L63.5132 0.953104Z" fill="#BABABA"/>
<path d="M60.368 0.953104L64.8511 9.92819L55.416 18.9009L60.368 0.953104Z" fill="#BABABA"/>
</g>
</g>
<defs>
<clipPath id="clip0_200_868">
<rect width="68" height="24.1653" fill="white" transform="translate(0 0.917236)"/>
</clipPath>
</defs>
</svg>
