<svg width="68" height="22" viewBox="0 0 68 22" fill="none" xmlns="http://www.w3.org/2000/svg">
<g clip-path="url(#clip0_200_852)">
<path d="M29.4665 21.6756H23.958L27.4034 0.393555H32.9116L29.4665 21.6756Z" fill="#BABABA"/>
<path d="M49.4351 0.913629C48.3485 0.483017 46.6252 0.00756836 44.4944 0.00756836C39.0546 0.00756836 35.2239 2.9054 35.2004 7.04842C35.1552 10.1051 37.9431 11.8029 40.0281 12.8221C42.1593 13.8636 42.8837 14.5433 42.8837 15.4717C42.8621 16.8974 41.1616 17.5546 39.5757 17.5546C37.3765 17.5546 36.1981 17.2158 34.4073 16.4226L33.682 16.0825L32.9111 20.8599C34.2031 21.4479 36.5833 21.9697 39.0546 21.9925C44.8345 21.9925 48.5974 19.1395 48.6419 14.7245C48.6639 12.3018 47.1918 10.4455 44.0182 8.92854C42.0915 7.95478 40.9116 7.29818 40.9116 6.30184C40.9342 5.39608 41.9096 4.46836 44.0844 4.46836C45.8752 4.42292 47.1909 4.85293 48.1877 5.28324L48.6859 5.50923L49.4351 0.913629Z" fill="#BABABA"/>
<path d="M56.7569 14.1361C57.2105 12.9135 58.9561 8.18158 58.9561 8.18158C58.9332 8.22702 59.4089 6.93638 59.6809 6.14407L60.0658 7.97786C60.0658 7.97786 61.109 13.0721 61.3355 14.1361C60.4746 14.1361 57.8449 14.1361 56.7569 14.1361ZM63.5564 0.393555H59.2956C57.9817 0.393555 56.9834 0.778126 56.4165 2.15933L48.2344 21.6753H54.0143C54.0143 21.6753 54.9658 19.0486 55.1704 18.4829C55.8044 18.4829 61.4271 18.4829 62.2428 18.4829C62.4009 19.23 62.9 21.6753 62.9 21.6753H68.0004L63.5564 0.393555Z" fill="#BABABA"/>
<path d="M19.3568 0.393555L13.9622 14.9059L13.3727 11.9626C12.3753 8.56645 9.24742 4.87661 5.75684 3.04192L10.6981 21.653H16.5232L25.1815 0.393555H19.3568Z" fill="#BABABA"/>
<path d="M8.95327 0.393555H0.0906679L0 0.823564C6.91338 2.58964 11.492 6.84671 13.3731 11.9635L11.4465 2.1825C11.1293 0.823263 10.1545 0.438391 8.95327 0.393555Z" fill="#BABABA"/>
</g>
<defs>
<clipPath id="clip0_200_852">
<rect width="68" height="21.985" fill="white" transform="translate(0 0.00756836)"/>
</clipPath>
</defs>
</svg>
