<svg width="114" height="49" viewBox="0 0 114 49" fill="none" xmlns="http://www.w3.org/2000/svg">
<g clip-path="url(#clip0_22_47)">
<path d="M94.8673 45.4697C86.9533 45.4697 72.2654 37.6129 70.1084 35.0402C69.7196 34.5783 69.2935 34.0976 68.785 33.7032C58.9383 26.0454 45.1776 31.2358 35.129 35.0252C32.415 36.0468 29.8542 37.0157 27.7607 37.5715C27.0206 37.8044 9.40561 43.2501 2.64299 39.6747C1.42056 39.0287 0.620561 38.1124 0.261683 36.9556C-0.8 33.5042 1.33832 29.8387 6.45608 26.3609C9.94766 23.9874 13.9103 22.3198 18.2318 21.4072C24.4224 20.1003 35.372 17.3023 39.1178 13.2612C39.3944 12.9645 39.6299 12.6903 39.8318 12.4387C38.9869 12.311 37.286 11.9467 36.6393 11.0604C36.4 10.7337 36.3215 10.3656 36.4075 9.96374C36.5421 9.34031 37.1065 8.85958 37.7794 8.79574C39.0804 8.66804 40.729 8.71687 41.2 9.6708C41.4916 10.2642 41.2748 11.0717 40.5383 12.1232C41.5664 12.097 46.3813 11.7402 48.7439 7.42117C49.1664 6.6475 49.4467 5.9452 49.585 5.31049C48.8224 5.49452 47.9701 5.58841 47.0206 5.55461C45.7458 5.50954 45.1589 4.51054 45.1551 3.60167C45.1514 2.70407 45.7196 1.70882 46.9832 1.64873H47.1215C47.8804 1.61493 48.5981 1.85153 49.1327 2.30221C49.686 2.76791 50.1682 3.53782 50.0561 4.78846C53.8056 3.58289 55.0617 0.0488215 55.0766 0.00375366L55.4318 0.123935C55.4168 0.169002 54.0636 3.99226 50 5.20158C49.8766 5.87384 49.5925 6.66628 49.0804 7.60144C46.3252 12.6415 40.3888 12.5026 40.329 12.4988C40.3215 12.4988 40.3028 12.4988 40.2729 12.4951C40.0262 12.8143 39.7346 13.156 39.3981 13.5203C35.5813 17.6365 24.5533 20.4608 18.3178 21.779C14.0411 22.6804 10.1234 24.3291 6.6729 26.6764C3.21122 29.0312 -0.646729 32.708 0.628038 36.8505C0.953271 37.9096 1.69346 38.7508 2.82617 39.348C9.45421 42.852 27.4879 37.2748 27.6673 37.2185C29.7495 36.6664 32.3028 35.7012 35.0056 34.6834C45.1364 30.8639 59.0093 25.6323 69.0206 33.4178C69.5551 33.8347 70 34.3342 70.4 34.8111C72.8523 37.7368 91.7346 47.6329 97.8056 44.5383C98.4262 44.2228 98.9047 43.6519 99.1215 42.9722C99.3346 42.2999 99.2785 41.5976 98.9645 40.9929C97.9327 39.0137 94.4673 39.2991 90.8 39.6034C86.7103 39.9414 82.4785 40.2906 81.3159 37.3763C80.5383 34.8036 81.1813 34.3642 82.2953 33.8535C82.5607 33.7333 82.8374 33.6056 83.1065 33.4253L83.3159 33.737C83.0206 33.9361 82.7178 34.075 82.4486 34.199C81.514 34.6271 80.9495 34.8825 81.6673 37.2523C82.7215 39.8963 86.8112 39.5583 90.7701 39.2315C94.5645 38.9161 98.1495 38.6231 99.2972 40.8202C99.6598 41.515 99.7234 42.3224 99.4804 43.0886C99.2336 43.8623 98.6878 44.5157 97.9776 44.8763C97.1514 45.2969 96.0935 45.4847 94.8748 45.4847L94.8673 45.4697ZM38.7439 9.11872C38.385 9.11872 38.0561 9.14126 37.8206 9.16379C37.3084 9.21261 36.8785 9.57316 36.7776 10.0389C36.714 10.3318 36.7701 10.5909 36.9458 10.8313C37.5626 11.6763 39.428 11.9993 40.1009 12.0894C41.0131 10.8576 41.0467 10.1891 40.871 9.8323C40.5832 9.24642 39.585 9.11497 38.7439 9.11497V9.11872ZM47.2374 2.01303C47.2037 2.01303 47.1701 2.01303 47.1364 2.01303H47.0019C45.9813 2.06936 45.529 2.84303 45.5327 3.59416C45.5364 4.32651 46.0112 5.13398 47.0393 5.17529C48.0187 5.21284 48.8897 5.10393 49.6636 4.90112C49.7907 3.91339 49.5327 3.13221 48.8935 2.58764C48.4523 2.21583 47.8692 2.01303 47.2374 2.01303Z" fill="#861E35"/>
<path d="M69.7047 32.5164C70.3215 32.9972 70.815 33.5492 71.2523 34.075C71.914 34.86 74.2056 36.396 77.2224 38.026C78.6393 35.228 79.4355 32.0507 79.4355 28.6819C79.4355 17.46 70.5832 8.36383 59.6598 8.36383C48.7364 8.36383 39.8804 17.46 39.8804 28.6819C39.8804 29.6772 39.9514 30.6536 40.086 31.6113C40.2093 32.4977 40.3888 33.3615 40.6206 34.2065C42.9645 42.7431 50.6019 49 59.6598 49C66.385 49 72.329 45.5523 75.8991 40.2794C72.6467 38.5217 70.1271 36.8091 69.2523 35.7688C68.9234 35.3782 68.5682 34.9726 68.172 34.6572C66.3178 37.4476 63.1963 39.2766 59.6598 39.2766C54.9495 39.2766 50.9794 36.0355 49.7458 31.6076C49.514 30.7776 49.3757 29.9025 49.3533 29.0011C49.3458 28.896 49.3458 28.7908 49.3458 28.6819C49.3458 22.8306 53.9626 18.0872 59.6598 18.0872C65.357 18.0872 69.9701 22.8306 69.9701 28.6819C69.9701 29.9363 69.757 31.1419 69.3682 32.2611C69.4804 32.3437 69.5925 32.4301 69.7047 32.5164Z" fill="#CED71D"/>
<path d="M9.18879 42.0107C8.08224 42.0107 7.05794 41.9506 6.12336 41.8267L6.00374 47.8733H10.3664C13.772 47.8733 16.5346 45.0979 16.5346 41.6765V41.3422C14.0935 41.7366 11.5402 42.0107 9.18879 42.0107ZM36.1271 17.2309C34.1122 18.3051 31.7084 19.2552 29.1701 20.089C29.4953 21.0955 29.4355 22.286 28.6131 23.6306C27.372 25.6736 25.0991 26.8567 22.714 26.8567H18.2916V16.277H23.4355C24.9794 16.277 26.4822 16.8103 27.6224 17.8168C30.4636 16.9155 32.8636 15.9653 34.7327 14.9926C34.1458 14.279 33.4542 13.618 32.6692 12.9871C29.1252 10.144 24.6766 8.68307 20.1421 8.68307H6.78131L6.45608 25.0127L6.39252 28.2463L6.1757 39.179C7.04299 39.3067 8.02617 39.3705 9.11776 39.3705C11.5178 39.3705 14.1607 39.0663 16.6654 38.6457C17.2037 36.3585 19.3383 34.7097 21.7757 34.9201C27.1252 35.3783 34.8673 34.7173 36.4299 27.4951C37.4168 22.9283 37.2523 19.7284 36.1271 17.2309Z" fill="#6C9AD3"/>
<path d="M109.589 12.9871C106.045 10.144 101.596 8.68307 97.0617 8.68307H83.7047L83.2336 32.2911L83.1776 35.0853L83.1327 37.4476C83.6411 37.9208 84.6617 38.3077 86.871 38.3077C88.0598 38.3077 89.3869 38.1987 90.6729 38.0936C91.7271 38.0072 92.8112 37.9171 93.8318 37.8833C94.6168 36.0054 96.5383 34.7323 98.6953 34.9201C104.049 35.3783 111.787 34.7173 113.35 27.4951C114.994 19.8899 113.443 16.078 109.589 12.9871ZM105.536 23.6306C104.292 25.6736 102.019 26.8567 99.6336 26.8567H95.2112V16.277H100.355C102.243 16.277 104.075 17.077 105.252 18.5604C106.243 19.8073 106.815 21.5312 105.536 23.6306ZM86.8748 40.9366C85.7084 40.9366 84.3103 40.8502 83.0729 40.3958L83.0617 40.8502L83.0093 43.6332L82.9234 47.8733H87.286C88.8935 47.8733 90.3589 47.2536 91.4579 46.2434C92.157 45.5974 92.7065 44.7899 93.0505 43.8811C93.3122 43.1975 93.4542 42.4539 93.4542 41.6765V40.531C92.643 40.5686 91.7832 40.6362 90.886 40.7113C89.5514 40.8239 88.1682 40.9366 86.8748 40.9366Z" fill="#6C9AD3"/>
</g>
<defs>
<clipPath id="clip0_22_47">
<rect width="114" height="49" fill="white"/>
</clipPath>
</defs>
</svg>
